<svg width="24" height="24" viewBox="0 0 24 24" fill="none" xmlns="http://www.w3.org/2000/svg">
<g clip-path="url(#clip0_147_2240)">
<path d="M3.66634 13.5001H6.16634V23.5001H3.66634C3.44533 23.5001 3.23337 23.4123 3.07709 23.256C2.92081 23.0997 2.83301 22.8878 2.83301 22.6668V14.3334C2.83301 14.1124 2.92081 13.9005 3.07709 13.7442C3.23337 13.5879 3.44533 13.5001 3.66634 13.5001V13.5001ZM8.07717 12.4226L13.4105 7.08926C13.4814 7.01817 13.5756 6.97507 13.6757 6.96787C13.7758 6.96067 13.8752 6.98987 13.9555 7.05009L14.6663 7.58343C14.8638 7.73163 15.0129 7.93497 15.0949 8.16781C15.1769 8.40064 15.1881 8.65255 15.1272 8.89176L14.1663 12.6668H19.4997C19.9417 12.6668 20.3656 12.8424 20.6782 13.1549C20.9907 13.4675 21.1663 13.8914 21.1663 14.3334V16.0868C21.1666 16.3046 21.1241 16.5203 21.0413 16.7218L18.4622 22.9843C18.3993 23.1369 18.2924 23.2675 18.1552 23.3593C18.0179 23.4512 17.8565 23.5002 17.6913 23.5001H8.66634C8.44533 23.5001 8.23337 23.4123 8.07709 23.256C7.92081 23.0997 7.83301 22.8878 7.83301 22.6668V13.0118C7.83306 12.7908 7.92088 12.5788 8.07717 12.4226Z" fill="#FFA724"/>
<rect x="7" y="3" width="2" height="4" transform="rotate(-30 7 3)" fill="#FFA724"/>
<rect x="13" width="2" height="4" fill="#FFA724"/>
<rect width="2" height="4" transform="matrix(-0.866025 -0.5 -0.5 0.866025 21.4648 3)" fill="#FFA724"/>
</g>
<defs>
<clipPath id="clip0_147_2240">
<rect width="24" height="24" fill="white"/>
</clipPath>
</defs>
</svg>
