<svg width="24" height="24" viewBox="0 0 24 24" fill="none" xmlns="http://www.w3.org/2000/svg">
<path d="M19.1818 19.2727H5.18176V20.2727C5.18176 20.5379 5.07641 20.7923 4.88887 20.9798C4.70133 21.1673 4.44698 21.2727 4.18176 21.2727H3.18176C2.91655 21.2727 2.66219 21.1673 2.47466 20.9798C2.28712 20.7923 2.18176 20.5379 2.18176 20.2727V10.2727L4.66176 4.48471C4.81609 4.12471 5.07272 3.81794 5.39982 3.60249C5.72692 3.38703 6.11008 3.27236 6.50176 3.27271H17.8618C18.2531 3.27275 18.6358 3.3876 18.9625 3.60304C19.2892 3.81847 19.5456 4.12502 19.6998 4.48471L22.1818 10.2727V20.2727C22.1818 20.5379 22.0764 20.7923 21.8889 20.9798C21.7013 21.1673 21.447 21.2727 21.1818 21.2727H20.1818C19.9165 21.2727 19.6622 21.1673 19.4747 20.9798C19.2871 20.7923 19.1818 20.5379 19.1818 20.2727V19.2727ZM20.1818 12.2727H4.18176V17.2727H20.1818V12.2727ZM4.35776 10.2727H20.0058L17.8628 5.27271H6.50176L4.35876 10.2727H4.35776ZM6.68176 16.2727C6.28394 16.2727 5.90241 16.1147 5.6211 15.8334C5.3398 15.5521 5.18176 15.1705 5.18176 14.7727C5.18176 14.3749 5.3398 13.9934 5.6211 13.712C5.90241 13.4307 6.28394 13.2727 6.68176 13.2727C7.07959 13.2727 7.46112 13.4307 7.74242 13.712C8.02373 13.9934 8.18176 14.3749 8.18176 14.7727C8.18176 15.1705 8.02373 15.5521 7.74242 15.8334C7.46112 16.1147 7.07959 16.2727 6.68176 16.2727V16.2727ZM17.6818 16.2727C17.2839 16.2727 16.9024 16.1147 16.6211 15.8334C16.3398 15.5521 16.1818 15.1705 16.1818 14.7727C16.1818 14.3749 16.3398 13.9934 16.6211 13.712C16.9024 13.4307 17.2839 13.2727 17.6818 13.2727C18.0796 13.2727 18.4611 13.4307 18.7424 13.712C19.0237 13.9934 19.1818 14.3749 19.1818 14.7727C19.1818 15.1705 19.0237 15.5521 18.7424 15.8334C18.4611 16.1147 18.0796 16.2727 17.6818 16.2727V16.2727Z" fill="#202732"/>
</svg>
