<svg width="32" height="32" viewBox="0 0 32 32" fill="none" xmlns="http://www.w3.org/2000/svg">
<mask id="path-1-inside-1_298_2293" fill="white">
<path fill-rule="evenodd" clip-rule="evenodd" d="M19.9616 23.7124C19.9616 23.3943 20.1343 23.1038 20.3998 22.9286C22.5688 21.4976 24 19.039 24 16.2461C24 11.8278 20.4183 8.24609 16 8.24609C11.5817 8.24609 8 11.8278 8 16.2461C8 19.1855 9.58528 21.7546 11.9475 23.1452C12.2368 23.3155 12.4288 23.6188 12.4288 23.9546V25.5189C12.4288 26.0084 12.8256 26.4051 13.315 26.4051H19.0754C19.5648 26.4051 19.9616 26.0084 19.9616 25.5189V23.7124Z"/>
</mask>
<path d="M11.9475 23.1452L11.0484 24.6726L11.9475 23.1452ZM20.3998 22.9286L21.3759 24.408L20.3998 22.9286ZM22.2276 16.2461C22.2276 18.4185 21.1167 20.3322 19.4238 21.4491L21.3759 24.408C24.0209 22.663 25.7724 19.6595 25.7724 16.2461H22.2276ZM16 10.0185C19.4394 10.0185 22.2276 12.8067 22.2276 16.2461H25.7724C25.7724 10.8489 21.3972 6.47368 16 6.47368V10.0185ZM9.77241 16.2461C9.77241 12.8067 12.5606 10.0185 16 10.0185V6.47368C10.6028 6.47368 6.22759 10.8489 6.22759 16.2461H9.77241ZM12.8466 21.6178C11.0031 20.5326 9.77241 18.5321 9.77241 16.2461H6.22759C6.22759 19.8389 8.16742 22.9767 11.0484 24.6726L12.8466 21.6178ZM14.2012 25.5189V23.9546H10.6564V25.5189H14.2012ZM19.0754 24.6327H13.315V28.1775H19.0754V24.6327ZM18.1892 23.7124V25.5189H21.734V23.7124H18.1892ZM10.6564 25.5189C10.6564 26.9872 11.8467 28.1775 13.315 28.1775V24.6327C13.8045 24.6327 14.2012 25.0295 14.2012 25.5189H10.6564ZM11.0484 24.6726C10.856 24.5594 10.6564 24.3127 10.6564 23.9546H14.2012C14.2012 22.925 13.6177 22.0717 12.8466 21.6178L11.0484 24.6726ZM19.0754 28.1775C20.5437 28.1775 21.734 26.9872 21.734 25.5189H18.1892C18.1892 25.0295 18.5859 24.6327 19.0754 24.6327V28.1775ZM19.4238 21.4491C18.7144 21.9172 18.1892 22.7374 18.1892 23.7124H21.734C21.734 24.0511 21.5542 24.2904 21.3759 24.408L19.4238 21.4491Z" fill="#FFE6A7" mask="url(#path-1-inside-1_298_2293)"/>
<path d="M13.3145 29.1777L19.0748 29.1777" stroke="#FFE6A7" stroke-width="1.77241" stroke-linecap="square"/>
<path d="M16 3V5.5" stroke="#FFE6A7" stroke-width="2" stroke-linecap="round"/>
<path d="M26.7676 7L24.9998 8.76777" stroke="#FFE6A7" stroke-width="2" stroke-linecap="round"/>
<path d="M6 7L7.76777 8.76777" stroke="#FFE6A7" stroke-width="2" stroke-linecap="round"/>
</svg>
