<svg width="106" height="106" viewBox="0 0 106 106" fill="none" xmlns="http://www.w3.org/2000/svg">
<g clip-path="url(#clip0_216_1835)">
<path d="M23.5408 14.447C26.297 13.4637 29.2757 13.283 32.1306 13.9258C34.9855 14.5686 37.5992 16.0086 39.668 18.0783C41.7368 20.148 43.1756 22.7624 43.8171 25.6176C44.4587 28.4727 44.2766 31.4514 43.2921 34.2071L91.1909 82.1059L81.8187 91.4736L33.92 43.5793C31.1638 44.5626 28.1851 44.7433 25.3302 44.1005C22.4753 43.4576 19.8616 42.0177 17.7928 39.9479C15.724 37.8782 14.2852 35.2638 13.6436 32.4087C13.0021 29.5535 13.1841 26.5749 14.1686 23.8191L24.0443 33.6992C24.6554 34.332 25.3865 34.8367 26.1948 35.1839C27.003 35.5311 27.8724 35.7139 28.752 35.7215C29.6317 35.7291 30.5041 35.5615 31.3183 35.2284C32.1324 34.8953 32.8721 34.4034 33.4942 33.7813C34.1162 33.1593 34.6081 32.4196 34.9413 31.6054C35.2744 30.7912 35.442 29.9188 35.4343 29.0392C35.4267 28.1595 35.2439 27.2902 34.8967 26.4819C34.5495 25.6736 34.0448 24.9426 33.4121 24.3315L23.5364 14.4425L23.5408 14.447ZM69.3284 22.768L83.3822 14.9593L89.6274 21.2045L81.8187 35.2583L74.0101 36.8218L64.6467 46.1895L58.3971 39.9444L67.7649 30.5766L69.3284 22.768V22.768ZM38.0981 57.1208L47.4659 66.493L25.6034 88.3555C24.3978 89.5498 22.7799 90.2359 21.0833 90.2724C19.3867 90.3089 17.7408 89.6929 16.485 88.5515C15.2292 87.4101 14.4592 85.8304 14.334 84.138C14.2087 82.4456 14.7376 80.7697 15.8116 79.4559L16.2401 78.9833L38.1026 57.1208H38.0981Z" fill="#0E2B5C"/>
</g>
<defs>
<clipPath id="clip0_216_1835">
<rect width="106" height="106" fill="white"/>
</clipPath>
</defs>
</svg>
