<svg width="106" height="106" viewBox="0 0 106 106" fill="none" xmlns="http://www.w3.org/2000/svg">
<path d="M83.9193 83.6667H22.0859V88.0833C22.0859 89.2547 21.6206 90.3781 20.7923 91.2064C19.964 92.0347 18.8406 92.5 17.6693 92.5H13.2526C12.0812 92.5 10.9578 92.0347 10.1295 91.2064C9.30126 90.3781 8.83594 89.2547 8.83594 88.0833V43.9167L19.7893 18.353C20.4709 16.763 21.6043 15.4081 23.049 14.4565C24.4937 13.5049 26.186 12.9985 27.9159 13H78.0893C79.8177 13.0002 81.5081 13.5075 82.9511 14.459C84.394 15.4105 85.5261 16.7644 86.2071 18.353L97.1693 43.9167V88.0833C97.1693 89.2547 96.704 90.3781 95.8757 91.2064C95.0474 92.0347 93.924 92.5 92.7526 92.5H88.3359C87.1646 92.5 86.0412 92.0347 85.2129 91.2064C84.3846 90.3781 83.9193 89.2547 83.9193 88.0833V83.6667ZM88.3359 52.75H17.6693V74.8333H88.3359V52.75ZM18.4466 43.9167H87.5586L78.0937 21.8333H27.9159L18.451 43.9167H18.4466ZM28.7109 70.4167C26.9539 70.4167 25.2688 69.7187 24.0264 68.4762C22.7839 67.2338 22.0859 65.5487 22.0859 63.7917C22.0859 62.0346 22.7839 60.3495 24.0264 59.1071C25.2688 57.8647 26.9539 57.1667 28.7109 57.1667C30.468 57.1667 32.1531 57.8647 33.3955 59.1071C34.638 60.3495 35.3359 62.0346 35.3359 63.7917C35.3359 65.5487 34.638 67.2338 33.3955 68.4762C32.1531 69.7187 30.468 70.4167 28.7109 70.4167ZM77.2943 70.4167C75.5372 70.4167 73.8521 69.7187 72.6097 68.4762C71.3673 67.2338 70.6693 65.5487 70.6693 63.7917C70.6693 62.0346 71.3673 60.3495 72.6097 59.1071C73.8521 57.8647 75.5372 57.1667 77.2943 57.1667C79.0513 57.1667 80.7364 57.8647 81.9789 59.1071C83.2213 60.3495 83.9193 62.0346 83.9193 63.7917C83.9193 65.5487 83.2213 67.2338 81.9789 68.4762C80.7364 69.7187 79.0513 70.4167 77.2943 70.4167Z" fill="#0E2B5C"/>
</svg>
